<?xml version="1.0" encoding="UTF-8"?>
<svg id="_레이어_2" data-name="레이어 2" xmlns="http://www.w3.org/2000/svg" viewBox="0 0 1396.28 388.58">
  <defs>
    <style>
      .cls-1 {
        fill: #B5E30F;
      }

      .cls-2 {
        fill: #282c2f;
      }
    </style>
  </defs>
  <g id="_레이어_5" data-name="레이어 5">
    <g>
      <path class="cls-1" d="M150.75,241.57c-22.82,0-41.32,18.5-41.32,41.32v41.11c0-24.28,19.68-43.97,43.97-43.97h2.57v3.25c0,24.28-19.68,43.97-43.97,43.97h47.26c22.82,0,41.32-18.5,41.32-41.32v-44.36h-49.83Z"/>
      <path class="cls-1" d="M296.62,174.17l-21.9-15.7,3.28-23.97-24.94-7.2-4.72-23.05-10.19-8.78-.88-33.31c-7.18-1.68-14.66-2.58-22.36-2.58h-117.45C43.64,59.59,0,103.23,0,157.05v220.82c0,5.92,4.79,10.71,10.71,10.71h64.07c5.91,0,10.7-4.79,10.7-10.71v-203.91c0-14.98,12.15-27.13,27.13-27.13h82.28c14.98,0,27.13,12.15,27.13,27.13v203.91c0,5.92,4.79,10.71,10.7,10.71h68.96c5.91,0,10.7-4.79,10.7-10.71v-180.7l-10.21-3.08-5.55-19.91Z"/>
      <path class="cls-1" d="M906.9,59.59h-117.45c-53.83,0-97.46,43.64-97.46,97.46v220.78c0,5.91,4.79,10.7,10.7,10.7h64.07c5.91,0,10.7-4.79,10.7-10.7v-203.87c0-14.98,12.15-27.13,27.13-27.13h82.28c14.98,0,27.13,12.15,27.13,27.13v203.87c0,5.91,4.79,10.7,10.7,10.7h68.95c5.91,0,10.7-4.79,10.7-10.7v-220.78c0-53.83-43.64-97.46-97.46-97.46Z"/>
      <path class="cls-1" d="M847.78,234.58h0c-40.89,0-40.89,43.91-40.89,43.91h81.77s0-43.91-40.88-43.91Z"/>
      <path class="cls-1" d="M884.49,247.37l2.39,1.65c5.27,3.64,12.72,2.35,16.72-2.89l1.61-2.11h0c-5.02-6.08-14.87-5.36-19.42,1.42l-1.3,1.94Z"/>
      <path class="cls-1" d="M879.86,242.48l2.86-1.37c6.3-3.01,9.01-10.53,6.07-16.86l-1.18-2.55h0c-8.53,1.55-13.05,10.98-8.93,18.6l1.18,2.18Z"/>
      <path class="cls-1" d="M1174.54,163.98h33.49c6.46,0,11.71,5.25,11.71,11.71v33.49c0,6.46-5.25,11.71-11.71,11.71h-33.49c-6.46,0-11.71-5.25-11.71-11.71v-33.49c0-6.46,5.25-11.71,11.71-11.71Z"/>
      <rect class="cls-1" x="373.28" y="316.96" width="51.95" height="51.95" rx="8.63" ry="8.63"/>
      <path class="cls-1" d="M1316.54,149.48l-11.85,13.17c-.83.92-3.51,1.89-4.67,1.47s-3.11-2.58-3.48-4l-5.86-22.35c-.73-2.77.46-6.33,2.2-7.83,2.71-2.34,6.52-1.45,9.34.42l15.7,10.38c2.95,1.95.36,6.83-1.37,8.74Z"/>
      <path class="cls-1" d="M1390.65,98.79l-23.86-6.19c-1.72-.45-3.88-2.23-4.34-3.86-.39-1.38.95-4.35,2.23-5.07l20.1-11.23c1.24-.7,4.69-.96,5.82-.11s2.04,3.34,2.43,5.14l3.18,14.94c.25,1.17-.2,3.36-.74,4.32s-3.64,2.37-4.82,2.06Z"/>
      <path class="cls-1" d="M1347.72,121c-7.01,4.87-16.51,5.44-22.46-.65-5.89-6.02,1.27-20.18,5.96-21.94,2.7-1.01,5.78.17,8.25,1.7l11.07,6.87c5.26,3.26,1.76,10.84-2.81,14.01Z"/>
      <path class="cls-1" d="M302.92,160.29c-2.62,3.39-8.17,1.1-10.68-.75l-6.65-4.91,2.22-13.22c.38-2.29,2.27-5.44,3.87-6.54,2.59-1.77,5.86-1.02,8.5.49l8.34,4.81c4.38,2.52,3.5,8.37.87,11.78l-6.45,8.34Z"/>
      <path class="cls-1" d="M608.54,100.64c-7.01,1.04-10.6-2.53-12.4-8.41-1.15-3.75-2.2-10.21,2.98-11.42l14.74-3.44c4.33-1.01,6.45,4.69,6.31,8.14-.31,7.47-3.92,13.98-11.63,15.13Z"/>
      <path class="cls-1" d="M282.66,115.81c-4.11,8.47-15.86,5.8-19.28,2.5-4.08-3.93-4.2-11.61-.39-15.7,1.77-1.91,6.07-4.42,8.39-5.22,8.99-1.09,13.81,13.23,11.29,18.42Z"/>
      <path class="cls-1" d="M1356.71,167.81l-17.48-.29.21-18.36c.01-1.06,1.51-3,2.39-3.31s3.19.3,3.94,1.06l13.52,13.76c.71.73.97,3.59.92,4.43-.06,1.05-2.09,2.73-3.49,2.71Z"/>
      <path class="cls-1" d="M662.8,112.71l-13.49-8.53c-.88-.56-2.07-2.79-1.95-3.82s1.97-3.1,3-3.36l17.54-4.29c.61-.15,2.5.15,3.08.38.78.32,1.52,2.89,1.22,3.71l-4.83,13.27c-.39,1.07-3.53,3.3-4.57,2.64Z"/>
      <path class="cls-1" d="M673.43,41.74l-17.27-3.99c-1.14-.26-2.51-2.63-2.24-3.53s1.4-2.68,2.27-3.27l13.29-8.98c1.25-.84,4.72.36,5.11,1.97l3.26,13.46c.17.69-.24,2.64-.53,3.17-.39.71-2.77,1.43-3.9,1.17Z"/>
      <path class="cls-1" d="M636.96,137.79l-9.11-.61c-1.17-.08-2.71-.15-3.44-.44-.91-.36-1.69-3.1-1.51-4.11l2.37-13.54c.17-.98,1.79-2.79,2.65-3.18,1.02-.46,3.58.41,4.37,1.43l9.58,12.49c1.4,1.82,2.5,4.32,1.14,6.28-1.27,1.83-3.66,1.83-6.04,1.67Z"/>
      <path class="cls-1" d="M1338.17,77.27l-12.46-.42c-1.23-.04-3.91-1.05-4.53-2.07-.73-1.2.38-4.15,1.43-5.32l9-10.03c.71-.79,2.79-1.73,3.73-1.75s2.62,1.63,2.93,2.64l3.82,12.52c.68,2.23-2.04,4.49-3.9,4.43Z"/>
      <path class="cls-1" d="M589.55,65.73l-9.86,6.74c-.64.44-2.25.85-2.96.73-.88-.15-1.89-2.49-1.85-3.44l.54-12.17c.04-.89.49-2.52.88-3.19.5-.84,3.32-.84,4.19-.29l8.01,5.01c.85.53,1.99,1.62,2.44,2.27.57.81-.48,3.7-1.4,4.33Z"/>
      <path class="cls-1" d="M584.79,33.09c-.53.29-2.41.47-2.91.27-.67-.26-1.67-2.08-1.52-2.8l2.76-13.29c.13-.6,1.28-2.1,1.79-2.19.68-.12,2.2.33,2.88.91l6.46,5.47c.76.65,1.94,2.65,1.85,3.62s-1.56,2.65-2.51,3.17l-8.81,4.83Z"/>
      <path class="cls-1" d="M253.3,91.55c-1.16.69-3.71-1.52-3.85-2.81l-.99-9.6c-.13-1.27,1.02-4.45,2.17-4.01l11.37,5.43c.8.38,2.18,1.87,2.15,2.66-.05.98-1.4,2.71-2.26,3.22l-8.6,5.1Z"/>
      <path class="cls-1" d="M309.78,106.55c.91.53,2.05,2.63,1.85,3.49s-1.93,2.29-3.12,2.57l-10.81,2.49c-.98-6.04-1.1-8.97-.07-15.62l12.15,7.08Z"/>
      <path class="cls-1" d="M321.57,173.18c-3.41-1.27-5.91-2.54-9.81-4.9,1.8-3.42,8.28-7.55,10.67-6.27l-.87,11.18Z"/>
      <path class="cls-1" d="M561.03,58.7c-.06,1.92-3.23,5.41-4.86,5.02-2.32-.54-3.6-4.39-2.42-6.58,1.7-.21,4.59.41,7.28,1.56Z"/>
      <path class="cls-1" d="M1304.25,91.4c.49-.88,3.73-.86,4.42-.12.69.74,1.09,2.56.38,3.27-.75.75-2.84,1.34-3.85,1.26s-1.66-3.15-.95-4.42Z"/>
      <path class="cls-1" d="M633.54,53.02l-16.89,7.25c-1.17.5-4.32.08-5.3-.71-1.14-.92-1.78-4.37-1.31-5.79l7.55-22.75c.42-1.26,2.17-3.51,3.33-4.03,1.33-.59,4.45.73,5.34,1.93l10.42,14.04c.94,1.27,1.95,4.08,1.58,5.46-.5,1.85-2.78,3.76-4.73,4.6Z"/>
      <path class="cls-2" d="M1317.39,339.79c0-4.49-1.44-8.87-4.1-12.49l-49.03-66.67c-3.45-4.69-8.92-7.46-14.75-7.46h-86.67c-17.27,0-31.28-14-31.28-31.28V71.32c0-6.48-5.25-11.73-11.73-11.73h-70.59c-6.48,0-11.73,5.25-11.73,11.73v181.86s0,46.19,0,46.19v78.4c0,5.89,4.77,10.77,10.66,10.77h72.73c5.89,0,10.66-4.88,10.66-10.77v-59c0-10.71,8.69-19.4,19.4-19.4h3.07c5.55,0,10.78,2.59,14.14,7.01l59.11,77.56c2.2,2.89,5.63,4.59,9.26,4.59l69.93-.03c6.03,0,10.92-4.89,10.92-10.93v-37.78Z"/>
      <path class="cls-2" d="M1262,174.39c-.62-2.35.54-4.81,2.76-5.82l14.42-6.59-7.1-17.28c-1.36-3.31-.85-7.09,1.34-9.91l18.02-23.28-5.3-18.41,15.71-33.38.03-.13h-54.17c-7.51,0-14.69,3.09-19.85,8.54l-77.61,81.98c-2.8,2.95-4.36,6.87-4.36,10.94v57.07c0,11.23,9.1,20.33,20.33,20.33h41.25c3.73,0,7.29-1.5,9.9-4.16l47.61-48.61-2.98-11.29ZM1219.74,209.19c0,6.47-5.24,11.71-11.71,11.71h-33.49c-6.47,0-11.71-5.24-11.71-11.71v-33.49c0-6.47,5.24-11.71,11.71-11.71h33.49c6.47,0,11.71,5.24,11.71,11.71v33.49Z"/>
      <path class="cls-2" d="M556.88,184.03h-104.18c-10.21,0-18.5-8.28-18.5-18.5h0c0-10.21,8.28-18.5,18.5-18.5h143.81l5.34,4.96c4.74,4.4,10.58,7.43,16.9,8.78l5.16,1.1c3.73,1.19,7.12,3.25,9.88,6.02l.72.78c2.14,2.33,4.56,4.39,7.2,6.15l-7.13-20.37-15.03-7.42-7.02-3.47c-2.23-1.1-3.52-3.49-3.22-5.96l2.78-22.67-22.56-2.89-9.85-23.74-29.78-2.86c-2.37-.23-4.28-2.04-4.63-4.4l-3.17-21.46h-92.78c-57.33,0-103.8,46.47-103.8,103.8h0c0,57.33,46.47,103.8,103.8,103.8h104.19c8.44,0,15.28,6.84,15.28,15.28h0c0,8.44-6.84,15.28-15.28,15.28h-187.6c-6.11,0-11.06,4.95-11.06,11.06v68.66c0,6.11,4.95,11.06,11.06,11.06h190.97c78.71,0,101.96-64.02,101.96-102.54h0c0-46.21-30.04-101.96-101.96-101.96ZM425.23,360.29c0,4.77-3.86,8.63-8.63,8.63h-34.7c-4.77,0-8.63-3.86-8.63-8.63v-34.7c0-4.77,3.86-8.63,8.63-8.63h34.7c4.77,0,8.63,3.86,8.63,8.63v34.7Z"/>
      <path class="cls-2" d="M1382.47,127.49c-2.32,1.75-6.99-.53-7.24-3.04.05-1.92,4.37-4.93,6.19-4.28,2.1.76,3,5.85,1.05,7.32Z"/>
      <path class="cls-2" d="M639.42,7.05c-1.84-.49-1.92-6.34-.2-6.95,1.03-.37,3.86.4,4.7,1.1s.95,3.22.38,4.15-3.24,2.13-4.88,1.7Z"/>
      <path class="cls-2" d="M644.58,76.34c-1.71,1.21-5.47.34-6.25-.86s.63-4.68,2.12-5.62c.89-.55,3.41.69,4.05,1.54.75.99,1.13,4.19.07,4.94Z"/>
      <path class="cls-2" d="M653.83,152.71c.6-.47,2.37.71,2.63,1.7s-.31,3.16-.92,3.6-2.13.04-2.63-.68c-.59-.84.03-3.92.92-4.63Z"/>
      <path class="cls-2" d="M848.11,347.1h0c26-.48,48.42-20.56,48.41-52.77h-96.84c0,34.07,24.38,52.77,48.43,52.77Z"/>
    </g>
  </g>
</svg>
