<?xml version="1.0" encoding="UTF-8"?>
<svg id="_레이어_2" data-name="레이어 2" xmlns="http://www.w3.org/2000/svg" viewBox="0 0 151.59 151.59">
  <defs>
    <style>
      .cls-1 {
        fill: #B5E30F;
      }

      .cls-2 {
        fill: #fff;
      }
    </style>
  </defs>
  <g id="_레이어_5" data-name="레이어 5">
    <g>
      <path class="cls-1" d="M111.5,0H40.09C17.95,0,0,17.95,0,40.09v71.41c0,22.14,17.95,40.09,40.09,40.09h71.41c22.14,0,40.09-17.95,40.09-40.09V40.09c0-22.14-17.95-40.09-40.09-40.09ZM75.54,78.96h0c12.88,0,12.88,13.84,12.88,13.84h-25.77s0-13.84,12.88-13.84ZM75.64,114.42c-7.58,0-15.26-5.89-15.26-16.63h30.51c0,10.15-7.06,16.48-15.25,16.63Z"/>
      <path class="cls-2" d="M94.31,23.97h-37.01c-16.96,0-30.71,13.75-30.71,30.71v69.56c0,1.86,1.51,3.37,3.37,3.37h20.19c1.86,0,3.37-1.51,3.37-3.37V60.01c0-4.72,3.83-8.55,8.55-8.55h25.92c4.72,0,8.55,3.83,8.55,8.55v64.24c0,1.86,1.51,3.37,3.37,3.37h21.73c1.86,0,3.37-1.51,3.37-3.37V54.68c0-16.96-13.75-30.71-30.71-30.71Z"/>
      <path class="cls-2" d="M75.64,114.42c8.19-.15,15.26-6.48,15.25-16.63h-30.51c0,10.73,7.68,16.63,15.26,16.63Z"/>
    </g>
  </g>
</svg>
