<svg preserveAspectRatio="none" width="100%" height="100%" overflow="visible" style="display: block;" viewBox="0 0 186 62.0001" fill="none" xmlns="http://www.w3.org/2000/svg">
<g id="Group 44">
<path id="Vector" d="M50.8033 39.7178C52.3755 39.7041 54.0399 39.6293 55.5965 39.7683C56.7357 39.8727 56.7599 41.8218 56.6982 42.662C56.5958 44.055 57.1237 45.7743 55.7313 46.5638C54.4861 46.5803 51.6113 46.6852 50.5615 46.4716C49.2831 46.2115 49.6896 41.577 49.8997 40.5601C49.9888 40.1291 50.4218 39.9014 50.8033 39.7178Z" fill="var(--fill-0, #B5E30F)"/>
<path id="Vector_2" d="M58.3721 6.08274C59.032 5.97474 62.1296 6.02224 62.9023 6.02323L72.2196 6.02454C72.716 10.3227 73.1124 9.3687 77.191 9.7011C77.6278 10.7555 78.0592 11.8293 78.5424 12.8625C79.5359 12.9876 80.532 13.0921 81.53 13.1757C80.9185 17.6116 80.8303 16.3465 84.5426 18.451L85.4876 21.0991C84.9308 20.6375 84.2815 20.0098 83.7391 19.5116C81.7375 19.1222 81.0383 18.8381 79.6205 17.4709C73.0698 17.6308 66.3451 17.3801 59.7935 17.5475C59.3655 17.5585 58.3794 18.3617 58.2296 18.7926C56.8307 22.8193 60.9549 22.3644 63.5285 22.3609L70.5747 22.3452C72.0159 22.3428 73.4579 22.3448 74.8987 22.3504C80.6067 22.3727 85.4361 25.9461 87.1678 31.2829C88.3266 34.8228 88.0039 38.6713 86.2729 41.9767C84.5211 45.3172 81.7584 47.5173 78.1558 48.6591C77.317 48.9242 76.0481 49.0966 75.164 49.106C67.1011 49.1924 59.0333 49.1213 50.9694 49.1402C50.0064 49.1425 48.8054 49.154 47.8936 48.8405C47.6378 48.5999 47.5393 48.2402 47.4647 47.9094C47.1864 46.6749 47.1274 38.597 47.6737 37.8644C47.9319 37.5182 48.4411 37.3563 48.8567 37.3021C50.5902 37.0762 52.7622 37.2662 54.538 37.2664L67.3566 37.2715C69.5157 37.2728 71.6573 37.2966 73.8251 37.2376C76.0383 37.2722 76.7034 34.05 74.4916 33.4462C73.2131 33.0971 71.574 33.2365 70.2305 33.24L62.8378 33.2556C61.0898 33.2583 58.9023 33.3391 57.2257 33.0476C55.0026 32.6586 52.9146 31.7252 51.1535 30.3336C48.2613 28.0375 46.5699 24.5765 46.1942 20.9677C45.8021 17.3136 46.9136 13.6572 49.28 10.8163C51.5429 8.10088 54.8192 6.39517 58.3721 6.08274Z" fill="var(--fill-0, #292D30)"/>
<path id="Vector_3" d="M106.303 5.97422C110.824 5.80016 115.407 6.04073 119.956 5.93666C126.222 5.79339 131.635 9.82311 133.053 15.8775C133.443 17.5412 133.327 19.8459 133.328 21.5859C133.336 29.8834 133.329 38.1843 133.322 46.4818C133.208 47.8458 133.489 49.0231 131.682 49.1174C129.193 49.2476 126.668 49.0779 124.172 49.1504C123.719 49.174 122.686 48.8218 122.585 48.3134C122.272 46.7408 122.4 44.6578 122.404 43.0628L122.414 27.2383C122.414 25.0597 122.479 22.5769 122.348 20.4019C122.303 19.665 121.772 18.9583 121.286 18.4133L121.196 18.3445C120.751 18.0135 119.984 17.5408 119.353 17.4993C115.772 17.3133 111.922 17.3545 108.341 17.454C104.164 17.5701 105.074 24.2094 105.077 26.9538L105.09 40.7918C105.091 41.889 105.369 47.864 104.65 48.6779C103.898 49.527 100.088 49.04 98.8269 49.1251C98.0762 49.1757 96.5116 49.1776 95.6888 49.1272C94.5644 49.084 94.1685 48.3483 94.1541 47.4088C94.0831 45.8886 94.1164 44.3731 94.1197 42.8563L94.133 34.3846L94.1286 23.3405C94.1286 21.2793 94.001 18.3157 94.3703 16.3844C94.7994 14.2386 95.7708 12.2338 97.1947 10.5552C99.5377 7.79646 102.695 6.2944 106.303 5.97422Z" fill="var(--fill-0, #B5E30F)"/>
<path id="Vector_4" d="M12.125 5.97336C16.3197 5.82955 20.5673 5.99892 24.7652 5.93143C27.3237 5.89037 29.0938 5.93809 31.5723 6.58085C31.5502 7.84965 31.6723 9.36743 31.6929 10.6826L33.0806 11.8063C33.2238 12.6848 33.4567 13.9981 33.7243 14.813C34.7019 15.1495 35.9588 15.4679 36.9716 15.7528C36.916 16.7247 36.6901 17.8858 36.6035 18.949C37.604 19.684 38.4487 20.2864 39.501 20.9611C39.6865 21.7708 39.9951 22.7739 40.221 23.5899L41.5625 23.9483L41.5648 40.1092C41.5617 42.5537 41.602 45.0008 41.565 47.443C41.5484 48.526 40.9043 49.0487 39.8415 49.0947C38.4326 49.1 36.8468 49.1792 35.4516 49.0865C34.3727 49.0148 30.0712 49.6017 29.7692 48.2908C29.3901 46.6446 29.5397 44.3382 29.5433 42.6036L29.5491 27.8751C29.5515 25.5023 29.6468 22.8757 29.4587 20.5151C29.3991 19.7662 29.1304 19.3196 28.6959 18.7234C27.2413 17.2828 25.6965 17.2638 23.7365 17.3561C20.6937 17.5601 17.2376 17.0868 14.2642 17.4937C10.5124 18.0071 11.3288 23.4117 11.3308 26.0218L11.3426 40.0443C11.3473 42.4225 11.3832 44.8273 11.3146 47.1921C11.2864 48.1656 10.9488 48.9837 9.9197 49.0565C8.10966 49.1848 6.23585 49.0811 4.41959 49.086C3.45253 49.0886 2.53614 49.159 1.58105 49.0871C0.401411 48.9632 0.0771703 48.3326 0.0381373 47.2609C-0.0214103 45.626 0.00786372 44.001 0.0103033 42.3724L0.0258277 32.9296L0.0159598 22.4387C0.0129657 17.7551 -0.387788 14.1262 3.01762 10.3621C5.48036 7.64009 8.44931 6.24626 12.125 5.97336Z" fill="var(--fill-0, #B5E30F)"/>
<path id="Vector_5" d="M139.331 6.06414C140.867 5.96455 142.839 6.05103 144.397 6.02472C145.578 6.00484 149.374 5.82586 150.251 6.33255C151.053 7.29996 150.773 10.5345 150.77 11.8628L150.755 22.0214C150.75 27.9464 150.054 31.706 157.773 31.337C158.14 31.3194 158.608 31.3337 158.987 31.3317L164.505 31.2906C166.344 31.2777 167.574 31.0717 168.757 32.6862C170.88 35.5827 173.142 38.4248 175.17 41.3851C175.995 42.8227 175.226 45.0286 175.52 46.5135C176.33 50.5999 170.465 48.63 168.037 49.0581C167.046 49.233 164.42 49.2437 163.55 48.5188C161.867 46.2364 159.966 43.9296 158.248 41.6627C157.793 41.0638 155.859 38.5243 155.405 38.101C154.874 37.5964 154.154 37.329 153.417 37.3614C148.587 37.5979 151.975 46.1508 150.37 48.6375C149.808 49.5081 141.667 48.8668 140.309 49.0939C139.796 49.1797 138.877 48.9029 138.496 48.5032C138.098 47.303 138.252 39.5864 138.252 37.9233L138.254 20.0622L138.273 10.9095C138.276 9.68021 138.053 8.06666 138.405 6.86949C138.532 6.44033 138.939 6.23864 139.331 6.06414Z" fill="var(--fill-0, #292D30)"/>
<path id="Vector_6" d="M165.24 6.06769C167.593 5.93556 170.987 6.02532 173.422 6.0263L171.315 10.3742C171.58 11.155 171.829 11.9412 172.059 12.7324C170.974 13.6946 170.123 15.2103 169.295 16.4647C169.512 17.3443 170.047 18.4778 170.42 19.3364C169.786 19.7129 168.725 20.1215 168.013 20.4188C168.19 21.1018 168.357 21.7877 168.511 22.4761C166.474 24.4723 164.413 26.6344 162.42 28.6828C162.336 28.7449 161.812 29.0859 161.681 29.1133C159.891 29.4859 156.102 29.4537 154.33 29.0897C153.79 28.979 153.067 28.127 152.943 27.8119C152.509 26.7121 152.504 18.7808 153.016 18.1927C156.344 14.3649 160.574 10.2893 164.112 6.53769C164.275 6.36504 165.029 6.13507 165.24 6.06769Z" fill="var(--fill-0, #292D30)"/>
<path id="Vector_7" d="M156.109 19.4844C157.938 19.4382 159.898 19.391 161.711 19.5343C162.631 19.6069 162.626 21.9434 162.564 22.6261C162.415 24.2442 163.125 26.2699 161.363 27.1224C159.676 27.2253 157.714 27.2025 156.027 27.0913C154.928 27.0188 154.814 24.8516 154.886 24.0715C155.043 22.3397 154.332 20.5153 156.109 19.4844Z" fill="var(--fill-0, #B5E30F)"/>
<path id="Vector_8" d="M19.2705 29.8692C21.6411 29.7719 24.3063 29.8323 26.6982 29.837C26.7045 31.5951 26.756 33.376 26.6945 35.1326C26.4497 42.136 20.3084 41.1037 15.3073 41.0813C16.5096 40.797 17.0412 40.649 18.1111 40.0497C20.2604 38.7043 20.6659 37.1733 20.8002 34.8215C17.1558 34.8028 15.7914 36.542 14.5924 39.6477C14.4981 35.4222 13.8708 30.9875 19.2705 29.8692Z" fill="var(--fill-0, #B5E30F)"/>
<path id="Vector_9" d="M107.116 36.755C111.381 36.6974 115.709 36.7291 119.978 36.7254C120.006 38.9362 119.4 40.2519 117.986 41.8636C116.803 42.9088 115.413 43.5667 113.805 43.6314C112.134 43.7006 110.503 43.1094 109.276 41.9892C107.669 40.5259 107.214 38.8064 107.116 36.755Z" fill="var(--fill-0, #292D30)"/>
<path id="Vector_10" d="M113.358 28.9032C116.847 28.7248 118.853 31.4657 118.979 34.6558L113.883 34.6512L108.087 34.6458C108.095 31.4151 110.093 29.2202 113.358 28.9032Z" fill="var(--fill-0, #B5E30F)"/>
<path id="Vector_11" d="M134.596 60.5998C134.98 60.5234 135.269 60.5536 135.585 60.8024L135.616 60.7497C135.766 61.2949 135.803 61.5307 135.377 61.9022C135.01 61.9523 135.162 61.9722 134.77 61.7309C134.503 61.2526 134.597 61.2215 134.596 60.5998Z" fill="var(--fill-0, #292D30)"/>
<path id="Vector_12" d="M172.438 14.9624C173.452 14.9648 174.386 15.7549 175.205 16.2852C176.418 17.0699 175.196 17.9451 174.544 18.6565C174.254 19.0234 173.995 19.3884 173.537 19.5019C172.244 19.2689 172.263 17.0634 172.023 16.0375C171.917 15.5934 172.161 15.2806 172.438 14.9624Z" fill="var(--fill-0, #B5E30F)"/>
<path id="Vector_13" d="M184.889 7.44015C185.08 7.53144 185.366 7.62339 185.436 7.83043C185.714 8.66352 186.507 10.4697 185.516 11.0277C185.01 11.0555 184.05 10.746 183.523 10.6028C182.762 10.4209 181.79 10.3725 181.67 9.49356C181.954 8.77272 184.074 7.85686 184.889 7.44015Z" fill="var(--fill-0, #B5E30F)"/>
<path id="Vector_14" d="M177.401 10.9378C178.846 10.9183 181.874 12.753 178.891 14.3265C176.539 15.2745 175.356 12.6147 177.401 10.9378Z" fill="var(--fill-0, #B5E30F)"/>
<path id="Vector_15" d="M82.6082 1.61658C83.5287 1.66343 85.1967 3.75003 84.8736 4.7217C84.5259 5.07573 83.8375 5.29642 83.3541 5.49058C82.7668 5.7662 82.2428 6.13563 81.6029 5.85913C81.4554 5.67284 81.3858 5.64128 81.3426 5.416C81.2041 4.6956 82.2542 2.13212 82.6082 1.61658Z" fill="var(--fill-0, #B5E30F)"/>
<path id="Vector_16" d="M39.0682 15.6184C39.4757 15.628 39.7533 15.7762 40.119 15.9172C42.2561 16.7407 41.2066 18.0294 40.2704 19.2375C39.3692 19.5577 38.6749 18.8826 38.0331 18.3373C38.2056 17.1855 38.1767 16.3609 39.0682 15.6184Z" fill="var(--fill-0, #B5E30F)"/>
<path id="Vector_17" d="M81.6516 8.24819C83.0093 8.03765 83.1979 11.3067 80.3771 11.3191C79.7838 11.0172 79.0096 10.1205 79.3345 9.42985C79.7821 8.47839 80.7448 8.41953 81.6516 8.24819Z" fill="var(--fill-0, #B5E30F)"/>
<path id="Vector_18" d="M36.1563 10.8293C36.6632 10.9311 36.8216 11.0632 37.2567 11.3472C37.7622 12.5991 38.1621 13.4001 36.648 14.0664C34.0456 13.8027 33.9843 12.0082 36.1563 10.8293Z" fill="var(--fill-0, #B5E30F)"/>
<path id="Vector_19" d="M178.687 17.2205C179.538 17.2425 180.75 18.7064 181.18 19.3929C181.329 19.6306 181.128 19.9016 181.018 20.1071C180.403 20.117 179.401 20.2438 178.857 20.0639C178.133 19.8246 178.427 17.7117 178.687 17.2205Z" fill="var(--fill-0, #B5E30F)"/>
<path id="Vector_20" d="M88.7638 10.3155C89.1919 10.2767 89.0533 10.2364 89.3804 10.3968C89.7408 11.0541 89.1242 12.3575 88.5565 12.7887C88.1351 12.8462 88.2726 12.8405 87.8424 12.5986C87.2436 12.2409 86.4132 11.9237 86.4234 11.176C86.8444 10.5955 88.022 10.4767 88.7638 10.3155Z" fill="var(--fill-0, #B5E30F)"/>
<path id="Vector_21" d="M89.3704 0.869797C89.4691 0.910638 89.6399 1.04059 89.7352 1.1072C90.1234 1.83491 90.6268 2.85168 89.9138 3.49072C89.5301 3.62296 89.0743 3.43841 88.6674 3.32364C88.2393 3.24524 87.7681 3.19708 87.4188 2.95411C87.2059 2.61417 87.2314 2.76072 87.2935 2.40439C87.6505 1.88504 88.7938 1.23966 89.3704 0.869797Z" fill="var(--fill-0, #B5E30F)"/>
<path id="Vector_22" d="M83.689 13.2136C84.3526 13.4342 85.6553 15.0575 85.6812 15.7534C85.5183 16.1087 85.613 15.9807 85.244 16.2302C84.455 16.0191 83.695 16.2151 83.2371 15.9462C82.8162 15.2955 83.171 13.7531 83.689 13.2136Z" fill="var(--fill-0, #B5E30F)"/>
<path id="Vector_23" d="M177.721 5.65752C177.831 5.67477 178.065 5.7238 178.129 5.83268C179.118 7.52441 179.355 8.32507 177.043 8.1925C176.56 8.20178 176.308 8.22864 176.049 7.80222C176.115 7.11185 177.195 6.18638 177.721 5.65752Z" fill="var(--fill-0, #B5E30F)"/>
<path id="Vector_24" d="M76.7643 5.07871C77.4617 5.12763 78.5663 5.68925 78.6314 6.48652C78.5117 6.80855 78.1941 6.95336 77.8946 7.13856C77.5788 7.35663 77.473 7.43002 77.1157 7.58978C76.2001 7.45295 76.6639 5.79801 76.7643 5.07871Z" fill="var(--fill-0, #B5E30F)"/>
<path id="Vector_25" d="M77.9264 0C78.4563 0.241879 79.3337 0.842264 79.309 1.4765C79.0597 1.86886 79.0264 1.79853 78.5597 2.05417C78.1423 2.31014 77.9618 2.50211 77.4879 2.30621C77.1744 1.76534 77.5819 0.464976 77.9264 0Z" fill="var(--fill-0, #B5E30F)"/>
<path id="Vector_26" d="M118.483 27.1663C119.451 27.298 119.108 28.4593 118.818 29.0368C118.626 29.4199 118.331 29.6159 117.992 29.8561L117.878 29.8924L117.725 29.7415C117.331 28.4887 117.471 27.9817 118.483 27.1663Z" fill="var(--fill-0, #B5E30F)"/>
<path id="Vector_27" d="M33.1356 7.92464C33.6327 8.02718 34.8829 8.53682 35.1115 8.99447C35.0261 9.36259 35.0639 9.24705 34.6868 9.51896C34.391 9.71716 34.1941 9.82134 33.8805 9.98427C33.458 9.98012 33.6159 10.0359 33.2869 9.77482C33.0471 9.33136 33.0949 8.43635 33.1356 7.92464Z" fill="var(--fill-0, #B5E30F)"/>
<path id="Vector_28" d="M119.422 29.6322C120.007 29.5799 121.029 29.5456 121.017 30.3163C120.822 30.688 120.529 30.8189 120.164 31.0406C119.317 31.1086 119.052 30.9341 118.301 30.5646C118.722 30.133 118.926 29.986 119.422 29.6322Z" fill="var(--fill-0, #B5E30F)"/>
<path id="Vector_29" d="M39.6043 11.1963C40.1188 11.3264 41.4001 11.9812 41.4371 12.5846L41.2094 12.81C40.6724 12.9539 40.1343 13.0932 39.5948 13.228C39.5599 12.5535 39.4905 11.8592 39.6043 11.1963Z" fill="var(--fill-0, #B5E30F)"/>
<path id="Vector_30" d="M42.6782 19.2487C43.0279 19.6376 43.0506 20.4213 42.5761 20.726L42.2224 20.5941C41.8314 20.3476 41.8326 20.4293 41.6585 20.0685C41.8111 19.7191 42.326 19.4674 42.6782 19.2487Z" fill="var(--fill-0, #B5E30F)"/>
<g id="sub title">
<path id="Subtract" d="M90.3929 55.9714C90.7397 55.7505 90.8808 55.8321 91.3695 55.8259C91.4692 56.6329 91.4793 60.9028 91.3607 61.6716C91.1445 61.8419 90.6501 61.8567 90.3939 61.7624L90.3216 61.4069C89.937 61.3995 89.8556 61.7209 89.554 61.8073C85.3574 63.0101 85.571 55.3056 90.2298 57.7468C90.3792 57.5033 90.3347 57.3029 90.3236 57.0104C90.3092 56.6544 90.2665 56.3037 90.3929 55.9714ZM89.9115 58.5847C89.5478 58.265 89.0388 58.1625 88.5775 58.3161C87.8767 58.5496 87.4965 59.2941 87.7249 59.987C87.9535 60.6796 88.7042 61.0629 89.4105 60.8474C89.8749 60.7055 90.2272 60.3284 90.3304 59.8601C90.4335 59.3916 90.274 58.9043 89.9115 58.5847Z" fill="var(--fill-0, #292D30)"/>
<path id="Subtract_2" d="M69.0826 57.2676C70.1893 57.1976 70.0817 57.2532 71.1061 57.6973C71.5847 57.6376 71.5952 57.032 72.2975 57.3692C72.3804 58.1153 72.3356 60.9119 72.2936 61.7286L72.1227 61.8301C71.7031 61.8382 71.6211 61.9057 71.2906 61.7286L71.193 61.2559C69.9922 62.3465 68.3782 62.1798 67.6695 60.6788C67.3681 60.0475 67.339 59.3224 67.5895 58.67C67.9023 57.8653 68.3368 57.6075 69.0826 57.2676ZM71.1451 59.1075C70.887 58.4118 70.1037 58.0545 69.3981 58.3106C68.6952 58.5658 68.3344 59.3336 68.5914 60.0264C68.8486 60.719 69.6266 61.0762 70.3307 60.8252C71.0377 60.5731 71.4031 59.8031 71.1451 59.1075Z" fill="var(--fill-0, #292D30)"/>
<path id="Subtract_3" d="M80.7295 57.2589C81.29 57.2027 81.6376 57.1838 82.1377 57.4591C83.183 58.0344 82.7304 57.5829 83.0889 57.3214C83.4 57.3136 83.6701 57.2683 83.9297 57.4141C83.9459 58.3705 84.1975 61.1384 83.7256 61.7579C83.3354 61.8857 83.4984 61.8655 83.0273 61.7403C82.9513 61.6089 82.9341 61.5777 82.8301 61.4718L82.7529 61.3946C80.8996 62.8017 79.4917 61.5642 79 59.6417C79.2616 58.3353 79.471 57.8382 80.7295 57.2589ZM82.793 59.0997C82.5369 58.4257 81.7841 58.0736 81.0918 58.3038C80.6236 58.4596 80.2781 58.854 80.1914 59.3331C80.1048 59.8122 80.2901 60.3002 80.6748 60.6056C81.0596 60.9108 81.583 60.9849 82.04 60.7999C82.7157 60.5259 83.049 59.7737 82.793 59.0997Z" fill="var(--fill-0, #292D30)"/>
<path id="Subtract_4" d="M123.085 57.2946C124.369 56.9588 125.687 57.708 126.034 58.9704C126.383 60.233 125.628 61.5347 124.349 61.8835C123.059 62.2345 121.726 61.4861 121.375 60.2146C121.026 58.9429 121.792 57.633 123.085 57.2946ZM124.957 59.1335C124.718 58.4782 124 58.1211 123.322 58.32C122.849 58.4588 122.493 58.8436 122.397 59.32C122.299 59.7967 122.479 60.2873 122.861 60.5944C123.244 60.9014 123.767 60.9752 124.222 60.7859C124.873 60.5144 125.196 59.789 124.957 59.1335Z" fill="var(--fill-0, #292D30)"/>
<path id="Subtract_5" d="M51.042 55.938C51.4202 55.919 51.9057 55.8433 52.1943 56.0386C52.5645 56.6531 54.5617 61.4118 54.4814 61.8159C52.7034 62.2823 53.7236 60.752 52.459 60.6089L50.291 60.6304C50.1339 61.0059 49.9445 61.5771 49.6504 61.8266C49.3177 61.8214 48.9586 61.8577 48.6855 61.7016C48.9432 60.7084 50.5637 57.0829 51.042 55.938ZM51.5557 57.3198C51.3431 57.8341 50.7653 58.9442 50.7969 59.3667C51.0294 59.8134 51.4265 59.6765 51.9043 59.6499L52.3271 59.6235C52.554 59.2048 51.8336 57.5425 51.5557 57.3198Z" fill="var(--fill-0, #292D30)"/>
<path id="Subtract_6" d="M100.214 55.9045C100.639 55.8816 100.818 55.8557 101.235 55.9513C101.563 56.2436 103.392 60.9725 103.653 61.6935C103.486 61.9005 103.412 61.8956 103.14 61.9738C102.021 61.6407 102.638 60.6987 101.583 60.6154L99.4092 60.6261C99.2562 61.0009 99.069 61.5954 98.7764 61.8322C98.4505 61.8247 98.0832 61.858 97.8193 61.7023C98.0434 60.7548 99.7371 56.9916 100.214 55.9045ZM100.695 57.3244C100.489 57.8182 99.9156 58.9346 99.9609 59.3537C100.238 59.8146 100.615 59.6719 101.139 59.6467L101.497 59.6183C101.657 59.1538 101.034 57.641 100.695 57.3244Z" fill="var(--fill-0, #292D30)"/>
<path id="Vector_31" d="M62.5221 55.7473C63.5102 55.6349 65.2659 56.3804 64.8521 57.555C64.2065 57.7545 63.4904 56.9104 62.8533 56.7319C62.3522 56.5916 61.7651 56.9439 61.6744 57.448C62.2333 58.6053 66.6185 58.4469 64.8186 61.045C64.287 61.8124 63.6527 61.8421 62.7913 61.9822C61.7725 61.851 59.9703 61.301 60.5795 59.933C61.8517 59.3042 61.8738 62.0052 63.7138 60.6637C63.9453 60.495 63.9512 60.2437 63.9655 60.0143C63.4788 59.067 60.8285 59.2698 60.5566 57.7883C60.3026 56.4044 61.3604 55.9497 62.5221 55.7473Z" fill="var(--fill-0, #292D30)"/>
<path id="Vector_32" d="M33.043 58.1574C34.4886 58.1221 41.3595 57.8661 42.3055 58.4127C42.5664 58.5633 42.5867 58.7001 42.6548 58.9662C42.57 59.34 42.4334 59.419 42.1481 59.6659C40.7634 59.6655 33.5609 59.8413 32.7711 59.4625C32.2778 58.9058 32.5307 58.5789 33.043 58.1574Z" fill="var(--fill-0, #B5E30F)"/>
<path id="Vector_33" d="M111.288 60.311C111.288 60.7965 111.376 61.35 111.157 61.7114C110.833 61.8687 110.651 61.8249 110.297 61.7952L110.172 61.6412C110.078 61.0161 110.017 56.3825 110.219 55.9537C110.569 55.8236 110.72 55.8598 111.082 55.8939C111.433 56.3974 111.276 58.1894 111.255 58.8903L113.738 55.9114L115.153 55.8992C114.568 56.5705 113.484 57.6228 113.114 58.4185C113.026 58.6058 113.259 58.8584 113.393 59.0639L113.857 59.7241C113.355 59.8443 113.127 59.8313 112.608 59.8309L112.228 59.2194L111.288 60.311Z" fill="var(--fill-0, #292D30)"/>
<path id="Vector_34" d="M134.594 59.6589C134.588 58.9846 134.453 56.1738 134.766 55.837C135.262 55.8164 135.094 55.7647 135.475 55.9704C135.934 56.6315 135.675 58.4491 135.679 59.3579C136.23 58.6998 136.802 57.9915 137.367 57.3504L138.717 57.3582L137.134 59.0803C137.686 59.9495 138.274 60.8444 138.796 61.7277C138.593 61.8927 137.92 61.8492 137.603 61.8425C137.457 61.5982 136.841 60.6209 136.819 60.4194L136.499 60.0161C136.059 59.9667 135.867 60.4048 135.617 60.7497C135.766 61.2948 135.803 61.5307 135.377 61.9022C135.01 61.9522 135.162 61.9722 134.771 61.7309C134.503 61.2526 134.598 61.2215 134.597 60.5998L134.594 59.6589Z" fill="var(--fill-0, #292D30)"/>
<path id="Vector_35" d="M129.479 57.2739C130.445 57.2001 132.103 57.2705 131.894 58.6428L131.708 58.7781C131.25 58.722 130.738 58.3373 130.334 58.0819C129.914 58.0969 129.674 58.1541 129.514 58.5494C129.98 59.3651 130.904 59.0294 131.54 59.4853C133.021 60.5462 131.686 61.6775 130.455 61.953C129.49 61.9877 128.312 61.6592 128.299 60.5124L128.453 60.3673C129.051 60.3878 129.612 60.8741 130.38 61.0395C130.705 60.9552 130.794 60.9493 131.031 60.7213C130.915 59.9911 128.865 59.8433 128.458 58.9826C128.082 58.1879 128.836 57.6119 129.479 57.2739Z" fill="var(--fill-0, #292D30)"/>
<path id="Vector_36" d="M75.3368 55.8182C75.7083 55.8067 75.9952 55.7702 76.3393 55.9182C76.5063 56.6542 76.4062 60.8084 76.3964 61.8456C76.0592 61.8526 75.6425 61.8869 75.3945 61.6947C75.2529 60.8481 75.3327 56.9443 75.3368 55.8182Z" fill="var(--fill-0, #292D30)"/>
<path id="Vector_37" d="M117.607 57.3412C117.975 57.3288 118.413 57.2867 118.698 57.4878C118.815 58.3828 118.744 60.8181 118.736 61.8373C118.37 61.8462 117.946 61.8872 117.656 61.7219C117.542 60.8278 117.604 58.3588 117.607 57.3412Z" fill="var(--fill-0, #292D30)"/>
<path id="Vector_38" d="M113.857 59.7241L115.326 61.8466L113.963 61.8471C113.531 61.2029 113.055 60.4535 112.608 59.8309C113.127 59.8313 113.355 59.8442 113.857 59.7241Z" fill="var(--fill-0, #292D30)"/>
<path id="Vector_39" d="M117.84 55.5555C118.043 55.4407 118.295 55.4482 118.49 55.575C118.686 55.7019 118.793 55.9265 118.766 56.1557C118.739 56.385 118.583 56.5798 118.363 56.6597C118.061 56.7695 117.722 56.6327 117.586 56.3447C117.45 56.0568 117.559 55.7138 117.84 55.5555Z" fill="var(--fill-0, #292D30)"/>
<path id="Vector_40" d="M144.303 58.1561C145.689 58.1263 152.642 57.8817 153.475 58.4032C153.736 58.5665 153.75 58.6985 153.803 58.9733C153.726 59.3169 153.57 59.4213 153.316 59.6595C152.08 59.6695 144.585 59.8881 144.019 59.4407C143.849 59.307 143.794 59.1512 143.803 58.9357C143.816 58.5881 144.062 58.371 144.303 58.1561Z" fill="var(--fill-0, #B5E30F)"/>
<path id="Vector_41" d="M90.324 57.0102C90.3096 56.6542 90.2663 56.3041 90.3927 55.9718C90.7398 55.7506 90.8806 55.8318 91.3697 55.8255C91.3453 56.2182 91.383 56.587 91.1379 56.8642C90.7797 56.9782 90.701 56.9869 90.324 57.0102Z" fill="var(--fill-0, #26292B)"/>
<path id="Vector_42" d="M112.228 59.2194L112.184 59.2022L112.18 59.1233C112.606 59.1161 112.969 59.0963 113.393 59.0639L113.857 59.7241C113.355 59.8442 113.127 59.8312 112.608 59.8309L112.228 59.2194Z" fill="var(--fill-0, #26292B)"/>
<path id="Vector_43" d="M134.594 59.6589C135.225 59.6546 136.117 59.5701 136.648 59.8139C136.848 60.0722 136.869 60.0637 136.819 60.4194L136.499 60.0161C136.059 59.9668 135.867 60.4048 135.617 60.7497C135.766 61.2949 135.803 61.5307 135.377 61.9022C135.01 61.9522 135.162 61.9722 134.771 61.7309C134.503 61.2526 134.598 61.2215 134.597 60.5998L134.594 59.6589Z" fill="var(--fill-0, #26292B)"/>
</g>
<path id="Vector_44" d="M85.38 7.32145C85.6212 7.26052 85.868 7.39877 85.938 7.63398C86.0081 7.8692 85.8763 8.11687 85.6399 8.19375C85.4796 8.24594 85.3033 8.20794 85.1799 8.09459C85.0565 7.98124 85.0057 7.81067 85.0474 7.6496C85.0891 7.48864 85.2166 7.36284 85.38 7.32145Z" fill="var(--fill-0, #292D30)"/>
</g>
</svg>
