<svg preserveAspectRatio="none" width="100%" height="100%" overflow="visible" style="display: block;" viewBox="0 0 50 50.0001" fill="none" xmlns="http://www.w3.org/2000/svg">
<g id="ASAK s logo">
<path id="Subtract" d="M28.9365 0.0765977C32.0719 0.0686628 35.4615 -0.184933 38.5615 0.280699C40.4161 0.559527 42.1349 1.11208 43.7382 2.09906C46.6988 3.92172 48.6711 6.89972 49.4413 10.2729C50.0914 13.1143 50.1754 35.555 49.6865 38.8998C49.4297 40.7247 48.7909 42.4759 47.8105 44.0327C45.5489 47.6281 42.5633 49.0041 38.622 49.8715C32.2224 50.0248 24.3913 49.6475 18.1845 49.9457C1.71916 50.7391 -0.712027 42.815 0.151308 28.4233C0.797822 17.6437 -3.57941 2.32438 12.1464 0.129332L28.9365 0.0765977ZM23.8622 24.9887C22.726 25.6096 21.103 26.703 20.666 27.977C21.185 30.0345 24.195 29.4975 25.8994 29.4203C26.8553 29.4485 28.0709 29.6187 28.7919 29.0717C30.1542 26.5123 26.0965 24.833 23.8622 24.9887Z" fill="var(--fill-0, #B5E30F)"/>
<path id="Vector" d="M18.4318 8.03301C46.076 6.0618 40.4603 15.9773 41.124 38.6911C41.1486 39.5038 41.0803 40.3411 40.657 41.058C39.4907 41.7777 32.7824 42.0732 32.3918 41.0334C30.3788 35.6566 33.6728 22.9813 30.6438 18.3064C28.0544 16.409 19.1966 15.9428 18.4184 20.3832C17.5518 25.3326 18.3201 31.0203 18.213 36.0999C18.1816 37.5884 18.7569 41.0225 16.7534 41.5807C15.3082 41.6409 10.6761 41.9637 9.60077 41.1921C8.52543 40.4205 8.82725 31.4233 8.88133 30.1162C9.25799 21.0106 6.5228 10.4803 18.4318 8.03301Z" fill="var(--fill-0, #292D30)"/>
<path id="Vector_2" d="M19.7947 30.8693C22.2448 30.8717 29.3955 29.7895 30.0647 32.2653C29.8544 33.4731 29.4938 33.9125 28.8274 34.9553C24.6757 38.5571 20.453 36.1273 19.7947 30.8693Z" fill="var(--fill-0, #292D30)"/>
</g>
</svg>
