<svg preserveAspectRatio="none" width="100%" height="100%" overflow="visible" style="display: block;" viewBox="0 0 177 60" fill="none" xmlns="http://www.w3.org/2000/svg">
<g id="Group 44">
<path id="Vector" d="M48.3451 38.4366C49.8412 38.4233 51.4251 38.3509 52.9063 38.4854C53.9905 38.5865 54.0135 40.4727 53.9547 41.2858C53.8573 42.6338 54.3597 44.2977 53.0346 45.0618C51.8497 45.0777 49.114 45.1792 48.115 44.9725C46.8984 44.7208 47.2853 40.2358 47.4852 39.2517C47.57 38.8346 47.9821 38.6143 48.3451 38.4366Z" fill="var(--fill-0, #B5E30F)"/>
<path id="Vector_2" d="M55.5477 5.88653C56.1756 5.78201 59.1233 5.82798 59.8586 5.82893L68.7251 5.8302C69.1975 9.98968 69.5747 9.06648 73.456 9.38816C73.8716 10.4086 74.2821 11.4477 74.742 12.4475C75.6874 12.5687 76.6353 12.6698 77.585 12.7506C77.003 17.0435 76.9191 15.8192 80.4519 17.8558L81.3511 20.4185C80.8212 19.9718 80.2034 19.3643 79.6873 18.8822C77.7824 18.5053 77.1171 18.2305 75.7679 16.9074C69.5342 17.0621 63.1348 16.8194 56.9003 16.9814C56.4929 16.9921 55.5546 17.7694 55.4121 18.1864C54.0809 22.0832 58.0055 21.643 60.4545 21.6396L67.1598 21.6244C68.5313 21.6221 69.9035 21.624 71.2746 21.6294C76.7064 21.651 81.3021 25.1091 82.95 30.2737C84.0528 33.6995 83.7457 37.4238 82.0984 40.6226C80.4314 43.8554 77.8024 45.9845 74.374 47.0894C73.5758 47.346 72.3683 47.5129 71.527 47.522C63.8543 47.6056 56.1769 47.5368 48.5031 47.555C47.5867 47.5573 46.4438 47.5684 45.5762 47.265C45.3328 47.0321 45.239 46.684 45.168 46.3639C44.9032 45.1693 44.847 37.3519 45.3669 36.6429C45.6126 36.3079 46.0972 36.1512 46.4927 36.0988C48.1423 35.8802 50.2092 36.064 51.8991 36.0643L64.0974 36.0692C66.152 36.0705 68.19 36.0935 70.2529 36.0364C72.359 36.0699 72.992 32.9516 70.8872 32.3673C69.6705 32.0295 68.1108 32.1643 66.8322 32.1677L59.7973 32.1828C58.1338 32.1854 56.0522 32.2636 54.4567 31.9816C52.3412 31.6051 50.3542 30.7018 48.6784 29.3551C45.9261 27.1331 44.3166 23.7837 43.959 20.2913C43.5859 16.7551 44.6436 13.2167 46.8954 10.4673C49.0489 7.83956 52.1667 6.18887 55.5477 5.88653Z" fill="var(--fill-0, #292D30)"/>
<path id="Vector_3" d="M101.159 5.78151C105.462 5.61306 109.823 5.84586 114.151 5.74515C120.115 5.6065 125.265 9.50623 126.615 15.3653C126.986 16.9753 126.876 19.2057 126.877 20.8896C126.884 28.9194 126.878 36.9525 126.871 44.9823C126.763 46.3024 127.03 47.4417 125.311 47.533C122.942 47.659 120.539 47.4947 118.163 47.5649C117.733 47.5877 116.749 47.2469 116.653 46.7549C116.356 45.233 116.477 43.2172 116.481 41.6737L116.491 26.3597C116.491 24.2513 116.552 21.8486 116.428 19.7438C116.385 19.0307 115.88 18.3467 115.418 17.8193L115.331 17.7527C114.908 17.4324 114.178 16.9749 113.577 16.9348C110.17 16.7548 106.506 16.7946 103.099 16.891C99.1238 17.0034 99.9902 23.4285 99.9923 26.0844L100.005 39.4759C100.006 40.5377 100.271 46.32 99.586 47.1076C98.8706 47.9294 95.2448 47.4581 94.045 47.5404C93.3306 47.5894 91.8416 47.5912 91.0587 47.5425C89.9887 47.5007 89.6119 46.7887 89.5982 45.8794C89.5307 44.4083 89.5623 42.9417 89.5655 41.4738L89.5782 33.2754L89.574 22.5876C89.574 20.5929 89.4526 17.7249 89.804 15.8559C90.2124 13.7793 91.1368 11.8392 92.4917 10.2147C94.7214 7.54496 97.7256 6.09135 101.159 5.78151Z" fill="var(--fill-0, #B5E30F)"/>
<path id="Vector_4" d="M11.5383 5.78068C15.53 5.6415 19.5721 5.8054 23.5669 5.74009C26.0015 5.70036 27.686 5.74654 30.0446 6.36856C30.0236 7.59644 30.1398 9.06525 30.1594 10.338L31.4799 11.4255C31.6162 12.2756 31.8379 13.5465 32.0925 14.3352C33.0228 14.6608 34.2189 14.969 35.1826 15.2447C35.1298 16.1852 34.9148 17.3089 34.8324 18.3378C35.7844 19.0491 36.5883 19.632 37.5896 20.285C37.7662 21.0685 38.0598 22.0392 38.2748 22.829L39.5514 23.1758L39.5536 38.8153C39.5507 41.181 39.589 43.5492 39.5537 45.9125C39.538 46.9607 38.925 47.4665 37.9137 47.511C36.5729 47.5161 35.0639 47.5928 33.7362 47.5031C32.7095 47.4337 28.6161 48.0017 28.3288 46.733C27.968 45.1399 28.1103 42.9079 28.1138 41.2293L28.1193 26.9759C28.1216 24.6796 28.2123 22.1377 28.0333 19.8533C27.9765 19.1285 27.7208 18.6964 27.3074 18.1194C25.9231 16.7253 24.4531 16.7069 22.588 16.7962C19.6924 16.9936 16.4035 16.5356 13.574 16.9294C10.0037 17.4262 10.7806 22.6565 10.7825 25.1824L10.7938 38.7525C10.7982 41.054 10.8324 43.3812 10.7671 45.6698C10.7403 46.6119 10.419 47.4036 9.43972 47.474C7.71725 47.5982 5.93411 47.4978 4.20574 47.5026C3.28547 47.5051 2.41342 47.5733 1.50455 47.5036C0.381988 47.3838 0.0734362 46.7735 0.0362919 45.7364C-0.0203743 44.1542 0.00748321 42.5816 0.00980473 41.0056L0.024578 31.8674L0.0151875 21.7149C0.0123384 17.1824 -0.369024 13.6705 2.87161 10.0279C5.21518 7.39364 8.04047 6.04476 11.5383 5.78068Z" fill="var(--fill-0, #B5E30F)"/>
<path id="Vector_5" d="M132.59 5.86852C134.051 5.77214 135.927 5.85584 137.41 5.83037C138.534 5.81114 142.146 5.63793 142.98 6.12828C143.744 7.06448 143.477 10.1947 143.474 11.4801L143.461 21.311C143.455 27.0449 142.794 30.6832 150.139 30.3261C150.488 30.3091 150.934 30.3229 151.294 30.321L156.546 30.2812C158.295 30.2687 159.465 30.0694 160.591 31.6318C162.612 34.4349 164.764 37.1852 166.694 40.0501C167.479 41.4413 166.748 43.576 167.027 45.013C167.798 48.9676 162.216 47.0613 159.906 47.4755C158.963 47.6448 156.464 47.6552 155.636 46.9537C154.035 44.7449 152.225 42.5125 150.591 40.3187C150.158 39.7392 148.318 37.2816 147.885 36.8719C147.38 36.3836 146.695 36.1249 145.993 36.1562C141.398 36.3851 144.621 44.6621 143.094 47.0686C142.559 47.911 134.812 47.2905 133.52 47.5102C133.032 47.5933 132.157 47.3254 131.795 46.9386C131.416 45.7771 131.563 38.3095 131.563 36.7L131.564 19.4151L131.583 10.5576C131.585 9.36794 131.373 7.80644 131.708 6.6479C131.829 6.23258 132.216 6.03739 132.59 5.86852Z" fill="var(--fill-0, #292D30)"/>
<path id="Vector_6" d="M157.244 5.87196C159.483 5.74409 162.713 5.83095 165.031 5.83191L163.026 10.0396C163.278 10.7952 163.514 11.556 163.734 12.3217C162.701 13.2528 161.891 14.7196 161.103 15.9336C161.31 16.7848 161.819 17.8817 162.174 18.7127C161.571 19.077 160.561 19.4724 159.883 19.7602C160.052 20.4211 160.21 21.0848 160.357 21.751C158.419 23.6828 156.458 25.7752 154.561 27.7576C154.481 27.8177 153.982 28.1476 153.858 28.1741C152.155 28.5347 148.549 28.5035 146.863 28.1513C146.349 28.0442 145.661 27.2197 145.543 26.9148C145.13 25.8504 145.125 18.175 145.612 17.6058C148.779 13.9015 152.805 9.95736 156.171 6.32679C156.326 6.15972 157.044 5.93716 157.244 5.87196Z" fill="var(--fill-0, #292D30)"/>
<path id="Vector_7" d="M148.555 18.8558C150.296 18.8111 152.161 18.7655 153.886 18.9041C154.761 18.9744 154.757 21.2356 154.698 21.8962C154.557 23.4621 155.232 25.4224 153.555 26.2475C151.95 26.347 150.082 26.325 148.477 26.2174C147.432 26.1472 147.323 24.0499 147.392 23.295C147.541 21.6191 146.864 19.8535 148.555 18.8558Z" fill="var(--fill-0, #B5E30F)"/>
<path id="Vector_8" d="M18.338 28.9056C20.5939 28.8115 23.1302 28.8699 25.4063 28.8745C25.4123 30.5759 25.4613 32.2994 25.4028 33.9993C25.1699 40.7768 19.3257 39.7778 14.5666 39.7561C15.7107 39.481 16.2166 39.3378 17.2348 38.7578C19.28 37.4557 19.6659 35.9741 19.7937 33.6982C16.3257 33.6802 15.0273 35.3632 13.8863 38.3688C13.7966 34.2796 13.1997 29.9879 18.338 28.9056Z" fill="var(--fill-0, #B5E30F)"/>
<path id="Vector_9" d="M101.933 35.5694C105.992 35.5136 110.11 35.5443 114.173 35.5407C114.199 37.6802 113.623 38.9535 112.277 40.5132C111.152 41.5246 109.828 42.1614 108.298 42.2239C106.708 42.2909 105.156 41.7188 103.989 40.6347C102.46 39.2186 102.026 37.5545 101.933 35.5694Z" fill="var(--fill-0, #292D30)"/>
<path id="Vector_10" d="M107.873 27.9709C111.194 27.7982 113.102 30.4507 113.222 33.5379L108.373 33.5334L102.857 33.5282C102.865 30.4017 104.766 28.2777 107.873 27.9709Z" fill="var(--fill-0, #B5E30F)"/>
<path id="Vector_11" d="M128.084 58.645C128.449 58.571 128.724 58.6003 129.025 58.841L129.054 58.7901C129.197 59.3176 129.232 59.5459 128.826 59.9054C128.477 59.9538 128.622 59.9731 128.249 59.7396C127.995 59.2767 128.085 59.2466 128.084 58.645Z" fill="var(--fill-0, #292D30)"/>
<path id="Vector_12" d="M164.095 14.4798C165.059 14.4821 165.948 15.2467 166.728 15.7598C167.882 16.5192 166.719 17.3663 166.099 18.0546C165.822 18.4097 165.576 18.763 165.14 18.8728C163.91 18.6473 163.928 16.513 163.699 15.5202C163.599 15.0904 163.831 14.7877 164.095 14.4798Z" fill="var(--fill-0, #B5E30F)"/>
<path id="Vector_13" d="M175.943 7.20014C176.124 7.28849 176.397 7.37747 176.463 7.57784C176.728 8.38406 177.482 10.132 176.539 10.672C176.058 10.6988 175.144 10.3993 174.643 10.2608C173.919 10.0847 172.993 10.0379 172.88 9.18731C173.15 8.48973 175.167 7.60341 175.943 7.20014Z" fill="var(--fill-0, #B5E30F)"/>
<path id="Vector_14" d="M168.817 10.585C170.192 10.5661 173.074 12.3416 170.235 13.8644C167.997 14.7817 166.871 12.2077 168.817 10.585Z" fill="var(--fill-0, #B5E30F)"/>
<path id="Vector_15" d="M78.6111 1.56443C79.487 1.60977 81.0743 3.62906 80.7668 4.56939C80.4359 4.91199 79.7808 5.12557 79.3208 5.31347C78.762 5.5802 78.2633 5.93771 77.6544 5.67013C77.514 5.48984 77.4478 5.4593 77.4066 5.24129C77.2748 4.54413 78.2741 2.06334 78.6111 1.56443Z" fill="var(--fill-0, #B5E30F)"/>
<path id="Vector_16" d="M37.1778 15.1146C37.5656 15.1239 37.8298 15.2673 38.1778 15.4037C40.2114 16.2007 39.2127 17.4478 38.3218 18.6169C37.4642 18.9268 36.8035 18.2735 36.1928 17.7457C36.357 16.6312 36.3294 15.8332 37.1778 15.1146Z" fill="var(--fill-0, #B5E30F)"/>
<path id="Vector_17" d="M77.7008 7.98212C78.9927 7.77837 79.1722 10.942 76.4879 10.954C75.9233 10.6618 75.1866 9.79408 75.4957 9.12566C75.9216 8.20489 76.8378 8.14793 77.7008 7.98212Z" fill="var(--fill-0, #B5E30F)"/>
<path id="Vector_18" d="M34.4068 10.48C34.8892 10.5785 35.0399 10.7063 35.454 10.9812C35.935 12.1927 36.3155 12.9678 34.8747 13.6127C32.3982 13.3575 32.3399 11.6209 34.4068 10.48Z" fill="var(--fill-0, #B5E30F)"/>
<path id="Vector_19" d="M170.041 16.665C170.85 16.6862 172.004 18.103 172.413 18.7674C172.555 18.9973 172.364 19.2596 172.259 19.4585C171.674 19.4681 170.721 19.5908 170.203 19.4166C169.513 19.1851 169.793 17.1403 170.041 16.665Z" fill="var(--fill-0, #B5E30F)"/>
<path id="Vector_20" d="M84.4688 9.98274C84.8761 9.94522 84.7442 9.90623 85.0555 10.0615C85.3985 10.6975 84.8118 11.9589 84.2715 12.3761C83.8705 12.4318 84.0014 12.4263 83.5919 12.1921C83.0221 11.8461 82.2319 11.5391 82.2416 10.8155C82.6422 10.2537 83.7629 10.1387 84.4688 9.98274Z" fill="var(--fill-0, #B5E30F)"/>
<path id="Vector_21" d="M85.046 0.841739C85.14 0.881262 85.3025 1.00702 85.3932 1.07148C85.7626 1.77572 86.2416 2.75969 85.5631 3.37812C85.198 3.50609 84.7643 3.3275 84.377 3.21643C83.9697 3.14055 83.5212 3.09395 83.1888 2.85882C82.9862 2.52984 83.0105 2.67166 83.0696 2.32683C83.4094 1.82423 84.4973 1.19967 85.046 0.841739Z" fill="var(--fill-0, #B5E30F)"/>
<path id="Vector_22" d="M79.6396 12.7873C80.271 13.0008 81.5107 14.5718 81.5353 15.2452C81.3803 15.5891 81.4704 15.4652 81.1193 15.7067C80.3684 15.5024 79.6453 15.692 79.2095 15.4318C78.809 14.8021 79.1466 13.3095 79.6396 12.7873Z" fill="var(--fill-0, #B5E30F)"/>
<path id="Vector_23" d="M169.122 5.47502C169.226 5.49171 169.449 5.53916 169.51 5.64453C170.451 7.28169 170.676 8.05652 168.476 7.92823C168.017 7.93721 167.777 7.9632 167.531 7.55053C167.593 6.88244 168.621 5.98682 169.122 5.47502Z" fill="var(--fill-0, #B5E30F)"/>
<path id="Vector_24" d="M73.0499 4.91488C73.7135 4.96222 74.7647 5.50572 74.8267 6.27728C74.7127 6.58892 74.4105 6.72905 74.1255 6.90828C73.8249 7.11932 73.7243 7.19034 73.3843 7.34494C72.513 7.21253 72.9544 5.61098 73.0499 4.91488Z" fill="var(--fill-0, #B5E30F)"/>
<path id="Vector_25" d="M74.1558 0C74.66 0.234077 75.495 0.815094 75.4715 1.42887C75.2343 1.80857 75.2025 1.74052 74.7585 1.98791C74.3613 2.23562 74.1895 2.4214 73.7385 2.23181C73.4402 1.70839 73.828 0.449977 74.1558 0Z" fill="var(--fill-0, #B5E30F)"/>
<path id="Vector_26" d="M112.75 26.29C113.671 26.4175 113.344 27.5412 113.069 28.1002C112.886 28.4709 112.606 28.6606 112.283 28.893L112.174 28.9282L112.028 28.7821C111.654 27.5697 111.787 27.0791 112.75 26.29Z" fill="var(--fill-0, #B5E30F)"/>
<path id="Vector_27" d="M31.5322 7.669C32.0053 7.76824 33.1951 8.26143 33.4125 8.70433C33.3313 9.06057 33.3673 8.94876 33.0084 9.2119C32.727 9.40371 32.5395 9.50452 32.2411 9.6622C31.8391 9.65818 31.9893 9.71218 31.6763 9.45951C31.448 9.03035 31.4935 8.16421 31.5322 7.669Z" fill="var(--fill-0, #B5E30F)"/>
<path id="Vector_28" d="M113.644 28.6764C114.2 28.6257 115.173 28.5926 115.161 29.3383C114.976 29.698 114.697 29.8248 114.35 30.0393C113.544 30.1051 113.291 29.9362 112.577 29.5786C112.977 29.161 113.171 29.0187 113.644 28.6764Z" fill="var(--fill-0, #B5E30F)"/>
<path id="Vector_29" d="M37.688 10.8351C38.1775 10.961 39.3968 11.5948 39.4321 12.1786L39.2154 12.3967C38.7044 12.536 38.1923 12.6709 37.6789 12.8013C37.6457 12.1485 37.5796 11.4766 37.688 10.8351Z" fill="var(--fill-0, #B5E30F)"/>
<path id="Vector_30" d="M40.6131 18.6278C40.9459 19.0041 40.9675 19.7626 40.516 20.0574L40.1794 19.9297C39.8073 19.6912 39.8085 19.7703 39.6428 19.4211C39.788 19.083 40.278 18.8395 40.6131 18.6278Z" fill="var(--fill-0, #B5E30F)"/>
<g id="sub title">
<path id="Subtract" d="M86.0188 54.1658C86.3489 53.9519 86.4832 54.0312 86.9484 54.0252C87.0434 54.8065 87.0525 58.9391 86.9397 59.6824C86.7337 59.847 86.2634 59.8615 86.0197 59.7703L85.9514 59.4265C85.5852 59.4192 85.5079 59.7306 85.2209 59.8142C81.2274 60.9781 81.4302 53.5222 85.8635 55.8845C86.0059 55.6487 85.9639 55.454 85.9533 55.1707C85.9396 54.8263 85.8985 54.4872 86.0188 54.1658ZM85.5607 56.6951C85.2146 56.3858 84.7302 56.2856 84.2912 56.4343C83.6245 56.6603 83.2625 57.3811 83.4797 58.0515C83.6971 58.7219 84.412 59.0931 85.0842 58.8845C85.5262 58.7472 85.862 58.3818 85.9602 57.9285C86.0581 57.4753 85.9056 57.0043 85.5607 56.6951Z" fill="var(--fill-0, #292D30)"/>
<path id="Subtract_2" d="M65.7396 55.4196C66.7928 55.3519 66.6913 55.4057 67.6663 55.8356C68.1213 55.7775 68.1312 55.1922 68.7991 55.5182C68.8781 56.24 68.8352 58.9466 68.7952 59.737L68.6331 59.8356C68.2338 59.8434 68.1555 59.9092 67.8411 59.738L67.7474 59.28C66.6047 60.3353 65.0691 60.1741 64.3949 58.7214C64.1081 58.1105 64.0814 57.4094 64.3197 56.778C64.6173 55.9992 65.0298 55.7486 65.7396 55.4196ZM67.7025 57.2009C67.4568 56.5276 66.7119 56.1825 66.0404 56.4303C65.3716 56.6773 65.0283 57.4191 65.2728 58.0895C65.5175 58.7601 66.2579 59.106 66.9281 58.863C67.6008 58.6189 67.9479 57.874 67.7025 57.2009Z" fill="var(--fill-0, #292D30)"/>
<path id="Subtract_3" d="M76.8232 55.4122C77.3566 55.3579 77.6873 55.3392 78.1631 55.6056C79.1579 56.1625 78.7269 55.7249 79.0684 55.4718C79.3644 55.4643 79.6211 55.4216 79.8682 55.5626C79.8836 56.4881 80.1237 59.1659 79.6748 59.7658C79.3035 59.8894 79.458 59.8703 79.0098 59.7492C78.9373 59.6217 78.9214 59.592 78.8223 59.4894L78.749 59.4142C76.9853 60.776 75.6456 59.5784 75.1777 57.7179C75.4267 56.4537 75.6257 55.9729 76.8232 55.4122ZM78.7871 57.1935C78.5435 56.5412 77.8268 56.2002 77.168 56.423C76.7224 56.5737 76.394 56.9554 76.3115 57.4191C76.2291 57.8827 76.4054 58.355 76.7715 58.6505C77.1376 58.9458 77.6355 59.018 78.0703 58.839C78.7132 58.5739 79.0305 57.8456 78.7871 57.1935Z" fill="var(--fill-0, #292D30)"/>
<path id="Subtract_4" d="M117.13 55.4469C118.352 55.1221 119.606 55.8464 119.936 57.068C120.268 58.2899 119.55 59.5498 118.332 59.8874C117.105 60.2269 115.835 59.5026 115.502 58.2721C115.17 57.0415 115.899 55.7744 117.13 55.4469ZM118.911 57.2262C118.683 56.5919 118 56.2466 117.355 56.4391C116.905 56.5734 116.566 56.9456 116.474 57.4069C116.382 57.8682 116.552 58.343 116.916 58.6403C117.28 58.9374 117.778 59.0081 118.211 58.8249C118.83 58.5622 119.138 57.8606 118.911 57.2262Z" fill="var(--fill-0, #292D30)"/>
<path id="Subtract_5" d="M48.5723 54.1336C48.9321 54.1152 49.3933 54.0425 49.668 54.2312C50.0202 54.826 51.9214 59.4317 51.8447 59.8221C50.1531 60.2731 51.1238 58.7923 49.9199 58.6541L47.8574 58.6746C47.708 59.0379 47.5278 59.5902 47.248 59.8318C46.9314 59.8267 46.589 59.8628 46.3291 59.7117C46.574 58.7509 48.117 55.2417 48.5723 54.1336ZM49.0615 55.4715C48.8593 55.9691 48.3092 57.0418 48.3389 57.451C48.5601 57.8835 48.9379 57.7512 49.3926 57.7254L49.7949 57.701C50.0113 57.2964 49.3263 55.6882 49.0615 55.4715Z" fill="var(--fill-0, #292D30)"/>
<path id="Subtract_6" d="M95.3652 54.1017C95.7693 54.0797 95.9403 54.0532 96.3369 54.1457C96.6482 54.4274 98.3897 59.0073 98.6377 59.7043C98.4784 59.9045 98.408 59.899 98.1484 59.9748C97.0842 59.6523 97.6715 58.7407 96.667 58.6603L94.5986 58.6701C94.453 59.0328 94.2747 59.608 93.9961 59.8371C93.686 59.8298 93.337 59.8627 93.0859 59.7121C93.2991 58.7953 94.9114 55.1541 95.3652 54.1017ZM95.8232 55.4748C95.627 55.9525 95.0821 57.0329 95.125 57.4387C95.3888 57.8848 95.7471 57.7473 96.2451 57.7228L96.5859 57.6955C96.7379 57.2459 96.1451 55.7811 95.8232 55.4748Z" fill="var(--fill-0, #292D30)"/>
<path id="Vector_31" d="M59.4968 53.949C60.4371 53.8402 62.1079 54.5617 61.7141 55.6984C61.0997 55.8914 60.4182 55.0745 59.812 54.9019C59.3351 54.7661 58.7765 55.107 58.6902 55.5948C59.222 56.7148 63.3951 56.5615 61.6822 59.0758C61.1763 59.8184 60.5727 59.8472 59.753 59.9828C58.7835 59.8558 57.0685 59.3235 57.6482 57.9997C58.8589 57.3911 58.8799 60.0051 60.6309 58.7068C60.8512 58.5435 60.8568 58.3004 60.8704 58.0783C60.4073 57.1616 57.8851 57.3578 57.6264 55.9242C57.3847 54.5849 58.3913 54.1449 59.4968 53.949Z" fill="var(--fill-0, #292D30)"/>
<path id="Vector_32" d="M31.4441 56.2814C32.8198 56.2472 39.3582 55.9995 40.2584 56.5284C40.5067 56.6742 40.526 56.8065 40.5908 57.0641C40.5102 57.4258 40.3802 57.5023 40.1087 57.7412C38.791 57.7408 31.937 57.911 31.1854 57.5444C30.716 57.0056 30.9566 56.6892 31.4441 56.2814Z" fill="var(--fill-0, #B5E30F)"/>
<path id="Vector_33" d="M105.903 58.3655C105.903 58.8353 105.987 59.371 105.778 59.7207C105.47 59.873 105.297 59.8306 104.96 59.8018L104.841 59.6527C104.751 59.0478 104.693 54.5637 104.885 54.1487C105.219 54.0229 105.362 54.0578 105.707 54.0909C106.041 54.5781 105.892 56.3124 105.872 56.9906L108.235 54.1078L109.581 54.096C109.024 54.7457 107.993 55.764 107.641 56.5341C107.557 56.7153 107.779 56.9597 107.907 57.1586L108.348 57.7976C107.87 57.9138 107.653 57.9012 107.159 57.9009L106.798 57.3091L105.903 58.3655Z" fill="var(--fill-0, #292D30)"/>
<path id="Vector_34" d="M128.082 57.7344C128.075 57.0819 127.948 54.3617 128.245 54.0358C128.717 54.0158 128.558 53.9658 128.92 54.1649C129.356 54.8047 129.111 56.5636 129.114 57.4431C129.638 56.8063 130.183 56.1208 130.72 55.5004L132.005 55.5079L130.498 57.1744C131.024 58.0156 131.583 58.8817 132.08 59.7365C131.887 59.8962 131.246 59.854 130.945 59.8476C130.806 59.6112 130.22 58.6653 130.198 58.4704L129.895 58.0801C129.476 58.0323 129.293 58.4562 129.055 58.79C129.197 59.3176 129.232 59.5459 128.827 59.9054C128.477 59.9538 128.622 59.9731 128.249 59.7396C127.995 59.2767 128.085 59.2466 128.084 58.645L128.082 57.7344Z" fill="var(--fill-0, #292D30)"/>
<path id="Vector_35" d="M123.214 55.4263C124.133 55.355 125.711 55.423 125.512 56.7511L125.335 56.882C124.899 56.8277 124.412 56.4554 124.027 56.2083C123.627 56.2228 123.4 56.2782 123.248 56.6607C123.691 57.4501 124.57 57.1252 125.176 57.5664C126.584 58.5931 125.314 59.6879 124.142 59.9545C123.224 59.9881 122.104 59.6702 122.091 58.5604L122.238 58.42C122.807 58.4398 123.34 58.9104 124.072 59.0705C124.381 58.9889 124.465 58.9832 124.691 58.7626C124.58 58.0559 122.629 57.9129 122.242 57.08C121.884 56.3108 122.602 55.7535 123.214 55.4263Z" fill="var(--fill-0, #292D30)"/>
<path id="Vector_36" d="M71.6915 54.0176C72.045 54.0065 72.318 53.9712 72.6455 54.1144C72.8044 54.8266 72.7091 58.8468 72.6998 59.8506C72.3789 59.8573 71.9823 59.8905 71.7464 59.7045C71.6116 58.8852 71.6876 55.1074 71.6915 54.0176Z" fill="var(--fill-0, #292D30)"/>
<path id="Vector_37" d="M111.916 55.4915C112.267 55.4795 112.684 55.4387 112.955 55.6334C113.066 56.4995 112.998 58.8562 112.991 59.8425C112.642 59.8512 112.239 59.8908 111.963 59.7308C111.854 58.8656 111.913 56.4763 111.916 55.4915Z" fill="var(--fill-0, #292D30)"/>
<path id="Vector_38" d="M108.348 57.7975L109.746 59.8515L108.449 59.852C108.037 59.2286 107.585 58.5034 107.159 57.9009C107.653 57.9012 107.87 57.9138 108.348 57.7975Z" fill="var(--fill-0, #292D30)"/>
<path id="Vector_39" d="M112.138 53.7634C112.331 53.6523 112.571 53.6595 112.756 53.7822C112.943 53.905 113.045 54.1224 113.019 54.3442C112.994 54.5662 112.845 54.7547 112.636 54.8319C112.348 54.9382 112.026 54.8058 111.896 54.5272C111.767 54.2485 111.871 53.9166 112.138 53.7634Z" fill="var(--fill-0, #292D30)"/>
<path id="Vector_40" d="M137.32 56.2801C138.639 56.2512 145.256 56.0145 146.049 56.5192C146.297 56.6772 146.311 56.805 146.361 57.071C146.288 57.4034 146.139 57.5045 145.897 57.735C144.722 57.7447 137.589 57.9562 137.05 57.5233C136.889 57.3938 136.836 57.2431 136.844 57.0345C136.857 56.6982 137.091 56.4881 137.32 56.2801Z" fill="var(--fill-0, #B5E30F)"/>
<path id="Vector_41" d="M85.9534 55.1711C85.9397 54.8266 85.8986 54.4878 86.0189 54.1662C86.3492 53.9522 86.4832 54.0307 86.9485 54.0247C86.9253 54.4047 86.9612 54.7616 86.728 55.0298C86.3872 55.1402 86.3122 55.1486 85.9534 55.1711Z" fill="var(--fill-0, #26292B)"/>
<path id="Vector_42" d="M106.798 57.3091L106.755 57.2925L106.752 57.2161C107.157 57.2091 107.502 57.19 107.907 57.1586L108.348 57.7975C107.87 57.9138 107.653 57.9012 107.16 57.9009L106.798 57.3091Z" fill="var(--fill-0, #26292B)"/>
<path id="Vector_43" d="M128.082 57.7344C128.682 57.7302 129.531 57.6485 130.036 57.8844C130.226 58.1344 130.246 58.1262 130.198 58.4704L129.895 58.0801C129.476 58.0323 129.293 58.4562 129.055 58.7901C129.197 59.3176 129.232 59.5459 128.827 59.9054C128.477 59.9538 128.622 59.9731 128.249 59.7396C127.995 59.2767 128.085 59.2466 128.084 58.645L128.082 57.7344Z" fill="var(--fill-0, #26292B)"/>
</g>
<path id="Vector_44" d="M81.2488 7.08528C81.4783 7.02631 81.7131 7.1601 81.7797 7.38773C81.8464 7.61536 81.721 7.85503 81.496 7.92943C81.3435 7.97995 81.1757 7.94317 81.0583 7.83347C80.9408 7.72378 80.8925 7.55871 80.9322 7.40284C80.9719 7.24707 81.0932 7.12533 81.2488 7.08528Z" fill="var(--fill-0, #292D30)"/>
</g>
</svg>
