<svg preserveAspectRatio="none" width="100%" height="100%" overflow="visible" style="display: block;" viewBox="0 0 80 79.9967" fill="none" xmlns="http://www.w3.org/2000/svg">
<g id="Group">
<path id="Vector" d="M40 79.9967C62.0917 79.9967 80 62.0883 80 39.9967C80 17.91 62.0917 0 40 0C17.9083 0 0 17.9083 0 39.9983C0 62.0883 17.9083 79.9967 40 79.9967Z" fill="#F5FBE0"/>
<path id="Vector_2" d="M40 60.3617L22.545 54.545V31.27L40 37.0883V60.3617Z" fill="#6C9700"/>
<path id="Vector_3" d="M34.1833 42.9083L16.7283 37.09L22.545 31.2733L40 37.0883L34.1833 42.9083Z" fill="#B5E30F"/>
<path id="Vector_4" d="M40 60.3617L57.455 54.545V31.27L40 37.0883V60.3617Z" fill="#6C9700"/>
<path id="Vector_5" d="M45.8167 42.9083L63.2733 37.09L57.455 31.2733L40 37.0883L45.8167 42.9083Z" fill="#B5E30F"/>
<path id="Vector_6" d="M22.545 31.2717L40 37.0867L57.455 31.27L40 25.4533L22.545 31.2717Z" fill="#6C9700"/>
<path id="Vector_7" d="M22.5467 31.2717L16.7283 25.455L34.1817 18.9083L40 25.4533L22.5467 31.2717ZM57.455 31.2717L63.2717 25.455L45.8183 18.9083L40 25.4533L57.455 31.2717Z" fill="#B5E30F"/>
<path id="Vector_8" d="M22.545 31.2717L40 25.4533V37.0883L22.545 31.2717Z" fill="#6C9700"/>
</g>
</svg>
