<svg preserveAspectRatio="none" width="100%" height="100%" overflow="visible" style="display: block;" viewBox="0 0 8 8" fill="none" xmlns="http://www.w3.org/2000/svg">
<g id="pinhead:chip-bag-with-chip">
<path id="Vector" d="M6.4 6.93333L6.93333 8H6.512L6.13333 7.62133L5.75467 8H5.44533L5.06667 7.62133L4.688 8H4.37867L4 7.62133L3.62133 8H3.312L2.93333 7.62133L2.55467 8H2.24533L1.86667 7.62133L1.488 8H1.06667L1.6 6.93333H6.4ZM1.6 1.33333H6.4L6.45333 1.43467C6.58667 1.72267 6.93333 2.60267 6.93333 4C6.93333 5.568 6.496 6.48 6.416 6.64L6.4 6.66667H1.6L1.56267 6.608C1.44533 6.38933 1.06667 5.57333 1.06667 4C1.06667 2.13333 1.6 1.33333 1.6 1.33333ZM2.84267 3.00267C2.69333 3.00267 2.55467 3.04 2.44267 3.12533C2.27733 3.25867 2.192 3.49333 2.15467 3.70667L2.144 3.78667C2.10667 4 2.16 4.208 2.24533 4.41067C2.32 4.59733 2.44267 4.768 2.608 4.88C2.832 5.02933 3.104 5.08267 3.36533 5.08267C3.47733 5.072 3.584 5.04533 3.69067 5.008L4.8 4.26667C4.8 4.592 4.65067 4.84267 4.352 5.01867L4.25067 5.072C4.37333 5.12533 4.512 5.168 4.63467 5.168C4.96 5.15733 5.296 5.01867 5.53067 4.79467C5.71733 4.61867 5.86667 4.35733 5.86667 4.096C5.86667 3.81333 5.75467 3.44 5.504 3.30133C5.20533 3.14667 4.976 3.29067 4.752 3.46667L4.62933 3.56267C4.464 3.69067 4.29333 3.80267 4.08533 3.79733C3.65333 3.78667 3.42933 3.11467 2.98133 3.01333C2.944 3.01333 2.89067 3.00267 2.84267 3.00267ZM1.49333 0L1.872 0.378667L2.24533 0H2.56L2.93867 0.378667L3.312 0H3.62667L4.00533 0.378667L4.37867 0H4.69333L5.072 0.378667L5.44533 0H5.76L6.13867 0.378667L6.512 0H6.93333L6.4 1.06667H1.6L1.06667 0H1.49333Z" fill="var(--fill-0, #FF8D28)"/>
</g>
</svg>
