<svg preserveAspectRatio="none" width="100%" height="100%" overflow="visible" style="display: block;" viewBox="0 0 6.25 8.33333" fill="none" xmlns="http://www.w3.org/2000/svg">
<path id="Vector" d="M0 0L0.833333 8.33333H5.41667L6.25 0H0ZM0.916667 0.833333H5.33333L5.20833 2.17917C3.825 2.70833 3.27083 2.3625 3.075 2.2125C2.97083 2.13333 2.82083 1.95417 2.54583 1.82917C2.27083 1.7 1.89583 1.66667 1.45833 1.8C1.2875 1.84583 1.15417 1.92083 1.04167 1.99583L0.916667 0.833333ZM2.025 2.54583C2.10417 2.54583 2.15 2.5625 2.19583 2.58333C2.29167 2.625 2.37917 2.72917 2.57083 2.875C2.92917 3.15 3.7625 3.48333 5.10833 3.0875L4.66667 7.5H1.58333L1.12917 2.94167C1.15 2.91667 1.2125 2.87083 1.32083 2.79583C1.45833 2.70833 1.62917 2.61667 1.66667 2.60417H1.67917C1.8375 2.55833 1.94583 2.54167 2.025 2.54583Z" fill="var(--fill-0, #0088FF)"/>
</svg>
