<svg preserveAspectRatio="none" width="100%" height="100%" overflow="visible" style="display: block;" viewBox="0 0 20 20" fill="none" xmlns="http://www.w3.org/2000/svg">
<g id="Icon/Nav/ForkKnife">
<path id="Vector" d="M5.625 6.875V3.125C5.625 2.95924 5.69085 2.80027 5.80806 2.68306C5.92527 2.56585 6.08424 2.5 6.25 2.5C6.41576 2.5 6.57473 2.56585 6.69194 2.68306C6.80915 2.80027 6.875 2.95924 6.875 3.125V6.875C6.875 7.04076 6.80915 7.19973 6.69194 7.31694C6.57473 7.43415 6.41576 7.5 6.25 7.5C6.08424 7.5 5.92527 7.43415 5.80806 7.31694C5.69085 7.19973 5.625 7.04076 5.625 6.875ZM16.875 3.125V17.5C16.875 17.6658 16.8092 17.8247 16.6919 17.9419C16.5747 18.0592 16.4158 18.125 16.25 18.125C16.0842 18.125 15.9253 18.0592 15.8081 17.9419C15.6908 17.8247 15.625 17.6658 15.625 17.5V13.75H11.875C11.7092 13.75 11.5503 13.6842 11.4331 13.5669C11.3158 13.4497 11.25 13.2908 11.25 13.125C11.279 11.6279 11.4681 10.1381 11.8141 8.68125C12.5781 5.51797 14.0266 3.39766 16.0039 2.55078C16.0989 2.51007 16.2026 2.49357 16.3056 2.50277C16.4086 2.51196 16.5077 2.54656 16.594 2.60347C16.6803 2.66037 16.7512 2.7378 16.8002 2.82882C16.8493 2.91984 16.875 3.02161 16.875 3.125ZM15.625 4.21094C13.1117 6.13047 12.6195 10.8063 12.5234 12.5H15.625V4.21094ZM9.36641 3.02266C9.35417 2.94059 9.32571 2.86178 9.28269 2.79083C9.23967 2.71988 9.18295 2.6582 9.11585 2.6094C9.04874 2.56059 8.97259 2.52564 8.89184 2.50658C8.81108 2.48752 8.72734 2.48472 8.6455 2.49836C8.56365 2.512 8.48534 2.54181 8.41513 2.58603C8.34493 2.63025 8.28423 2.68801 8.23658 2.75594C8.18893 2.82387 8.15528 2.90061 8.1376 2.98168C8.11992 3.06275 8.11856 3.14652 8.13359 3.22813L8.75 6.92422C8.75 7.58726 8.48661 8.22315 8.01777 8.69199C7.54893 9.16083 6.91304 9.42422 6.25 9.42422C5.58696 9.42422 4.95107 9.16083 4.48223 8.69199C4.01339 8.22315 3.75 7.58726 3.75 6.92422L4.36563 3.22813C4.38066 3.14652 4.3793 3.06275 4.36162 2.98168C4.34394 2.90061 4.31029 2.82387 4.26264 2.75594C4.21499 2.68801 4.15429 2.63025 4.08409 2.58603C4.01388 2.54181 3.93557 2.512 3.85372 2.49836C3.77188 2.48472 3.68814 2.48752 3.60738 2.50658C3.52662 2.52564 3.45047 2.56059 3.38337 2.6094C3.31626 2.6582 3.25955 2.71988 3.21653 2.79083C3.17351 2.86178 3.14505 2.94059 3.13281 3.02266L2.50781 6.77266C2.50246 6.80651 2.49985 6.84073 2.5 6.875C2.50125 7.76079 2.81556 8.61763 3.3874 9.29411C3.95923 9.97059 4.75178 10.4232 5.625 10.5719V17.5C5.625 17.6658 5.69085 17.8247 5.80806 17.9419C5.92527 18.0592 6.08424 18.125 6.25 18.125C6.41576 18.125 6.57473 18.0592 6.69194 17.9419C6.80915 17.8247 6.875 17.6658 6.875 17.5V10.5719C7.74822 10.4232 8.54077 9.97059 9.1126 9.29411C9.68444 8.61763 9.99875 7.76079 10 6.875C9.99989 6.84071 9.99702 6.80649 9.99141 6.77266L9.36641 3.02266Z" fill="var(--fill-0, #737373)"/>
</g>
</svg>
