<svg preserveAspectRatio="none" width="100%" height="100%" overflow="visible" style="display: block;" viewBox="0 0 10 10" fill="none" xmlns="http://www.w3.org/2000/svg">
<g id="mdi:drink-outline">
<path id="Vector" d="M1.66667 0.833333L2.5 9.16667H7.08333L7.91667 0.833333H1.66667ZM2.58333 1.66667H7L6.875 3.0125C5.49167 3.54167 4.9375 3.19583 4.74167 3.04583C4.6375 2.96667 4.4875 2.7875 4.2125 2.6625C3.9375 2.53333 3.5625 2.5 3.125 2.63333C2.95417 2.67917 2.82083 2.75417 2.70833 2.82917L2.58333 1.66667ZM3.69167 3.37917C3.77083 3.37917 3.81667 3.39583 3.8625 3.41667C3.95833 3.45833 4.04583 3.5625 4.2375 3.70833C4.59583 3.98333 5.42917 4.31667 6.775 3.92083L6.33333 8.33333H3.25L2.79583 3.775C2.81667 3.75 2.87917 3.70417 2.9875 3.62917C3.125 3.54167 3.29583 3.45 3.33333 3.4375H3.34583C3.50417 3.39167 3.6125 3.375 3.69167 3.37917Z" fill="var(--fill-0, #B5E30F)"/>
</g>
</svg>
