<svg preserveAspectRatio="none" width="100%" height="100%" overflow="visible" style="display: block;" viewBox="0 0 5.86667 8" fill="none" xmlns="http://www.w3.org/2000/svg">
<path id="Vector" d="M5.33333 6.93333L5.86667 8H5.44533L5.06667 7.62133L4.688 8H4.37867L4 7.62133L3.62133 8H3.312L2.93333 7.62133L2.55467 8H2.24533L1.86667 7.62133L1.488 8H1.17867L0.8 7.62133L0.421333 8H0L0.533333 6.93333H5.33333ZM0.533333 1.33333H5.33333L5.38667 1.43467C5.52 1.72267 5.86667 2.60267 5.86667 4C5.86667 5.568 5.42933 6.48 5.34933 6.64L5.33333 6.66667H0.533333L0.496 6.608C0.378667 6.38933 0 5.57333 0 4C0 2.13333 0.533333 1.33333 0.533333 1.33333ZM1.776 3.00267C1.62667 3.00267 1.488 3.04 1.376 3.12533C1.21067 3.25867 1.12533 3.49333 1.088 3.70667L1.07733 3.78667C1.04 4 1.09333 4.208 1.17867 4.41067C1.25333 4.59733 1.376 4.768 1.54133 4.88C1.76533 5.02933 2.03733 5.08267 2.29867 5.08267C2.41067 5.072 2.51733 5.04533 2.624 5.008L3.73333 4.26667C3.73333 4.592 3.584 4.84267 3.28533 5.01867L3.184 5.072C3.30667 5.12533 3.44533 5.168 3.568 5.168C3.89333 5.15733 4.22933 5.01867 4.464 4.79467C4.65067 4.61867 4.8 4.35733 4.8 4.096C4.8 3.81333 4.688 3.44 4.43733 3.30133C4.13867 3.14667 3.90933 3.29067 3.68533 3.46667L3.56267 3.56267C3.39733 3.69067 3.22667 3.80267 3.01867 3.79733C2.58667 3.78667 2.36267 3.11467 1.91467 3.01333C1.87733 3.01333 1.824 3.00267 1.776 3.00267ZM0.426667 0L0.805333 0.378667L1.17867 0H1.49333L1.872 0.378667L2.24533 0H2.56L2.93867 0.378667L3.312 0H3.62667L4.00533 0.378667L4.37867 0H4.69333L5.072 0.378667L5.44533 0H5.86667L5.33333 1.06667H0.533333L0 0H0.426667Z" fill="var(--fill-0, #FF8D28)"/>
</svg>
